M48
;DRILL file {KiCad (2016-01-30 BZR 6528, Git 351752f)-product} date Thu 07 Jul 2016 01:21:13 AM CEST
;FORMAT={-:-/ absolute / metric / decimal}
FMAT,2
METRIC,TZ
T1C0.200
T2C0.800
T3C0.813
%
G90
G05
M71
T1
X133.35Y-118.745
X139.065Y-87.63
X139.065Y-98.425
X141.605Y-85.725
X142.875Y-85.725
X144.145Y-85.725
X144.78Y-99.695
X144.78Y-102.235
X144.78Y-103.505
X144.78Y-104.775
X144.78Y-108.585
X144.78Y-109.855
X144.78Y-111.125
X146.05Y-99.695
X146.05Y-102.235
X146.05Y-111.125
X147.32Y-99.695
X147.32Y-102.235
X147.32Y-103.505
X147.32Y-104.775
X147.32Y-108.585
X147.32Y-109.855
X147.32Y-111.125
T2
X116.75Y-84.25
X116.75Y-85.75
X116.75Y-87.25
X116.75Y-88.75
X116.75Y-90.25
X116.75Y-91.75
X116.75Y-93.25
X116.75Y-94.75
X116.75Y-96.25
X116.75Y-97.75
X116.75Y-99.25
X116.75Y-100.75
X116.75Y-102.25
X116.75Y-103.75
X116.75Y-105.25
X116.75Y-106.75
X116.75Y-108.25
X116.75Y-109.75
X116.75Y-111.25
X116.75Y-112.75
X116.75Y-114.25
X116.75Y-115.75
X116.75Y-117.25
X116.75Y-118.75
X116.75Y-120.25
X116.75Y-121.75
X116.75Y-123.25
X116.75Y-124.75
X116.75Y-126.25
X116.75Y-127.75
X116.75Y-129.25
X118.25Y-84.25
X118.25Y-129.25
X119.75Y-84.25
X119.75Y-129.25
X121.25Y-84.25
X121.25Y-129.25
X122.75Y-84.25
X122.75Y-129.25
X124.25Y-84.25
X124.25Y-129.25
X125.75Y-84.25
X125.75Y-129.25
X127.25Y-84.25
X127.25Y-129.25
X128.75Y-84.25
X128.75Y-129.25
X130.25Y-84.25
X130.25Y-129.25
X131.75Y-84.25
X131.75Y-129.25
X133.25Y-84.25
X133.25Y-129.25
X134.75Y-84.25
X134.75Y-129.25
X136.25Y-84.25
X136.25Y-129.25
X137.75Y-84.25
X137.75Y-129.25
X139.25Y-84.25
X139.25Y-129.25
X141.Y-84.25
X141.Y-129.25
X142.75Y-84.25
X142.75Y-129.25
X144.25Y-84.25
X144.25Y-129.25
X145.75Y-84.25
X145.75Y-129.25
X147.25Y-84.25
X147.25Y-129.25
X148.75Y-84.25
X148.75Y-129.25
X150.25Y-84.25
X150.25Y-129.25
X151.75Y-84.25
X151.75Y-129.25
X153.25Y-84.25
X153.25Y-129.25
X154.75Y-84.25
X154.75Y-129.25
X156.25Y-84.25
X156.25Y-129.25
X157.75Y-84.25
X157.75Y-129.25
X159.25Y-84.25
X159.25Y-129.25
X160.75Y-84.25
X160.75Y-129.25
X162.25Y-84.25
X162.25Y-129.25
X163.75Y-84.25
X163.75Y-129.25
X165.25Y-84.25
X165.25Y-85.75
X165.25Y-87.25
X165.25Y-88.75
X165.25Y-90.25
X165.25Y-91.75
X165.25Y-93.25
X165.25Y-94.75
X165.25Y-96.25
X165.25Y-97.75
X165.25Y-99.25
X165.25Y-100.75
X165.25Y-102.25
X165.25Y-103.75
X165.25Y-105.25
X165.25Y-106.75
X165.25Y-108.25
X165.25Y-109.75
X165.25Y-111.25
X165.25Y-112.75
X165.25Y-114.25
X165.25Y-115.75
X165.25Y-117.25
X165.25Y-118.75
X165.25Y-120.25
X165.25Y-121.75
X165.25Y-123.25
X165.25Y-124.75
X165.25Y-126.25
X165.25Y-127.75
X165.25Y-129.25
T3
X154.94Y-89.535
T0
M30
