G04 #@! TF.FileFunction,Copper,L1,Top,Signal*
%FSLAX46Y46*%
G04 Gerber Fmt 4.6, Leading zero omitted, Abs format (unit mm)*
G04 Created by KiCad (PCBNEW (2016-01-30 BZR 6528, Git 351752f)-product) date Thu 07 Jul 2016 01:24:39 AM CEST*
%MOMM*%
G01*
G04 APERTURE LIST*
%ADD10C,0.100000*%
%ADD11R,1.600200X2.600960*%
%ADD12R,1.143000X0.635000*%
%ADD13R,1.000000X1.200000*%
%ADD14R,1.397000X0.889000*%
%ADD15R,0.889000X1.397000*%
%ADD16R,1.800860X1.300480*%
%ADD17R,1.800860X3.799840*%
%ADD18C,2.500000*%
%ADD19R,1.397000X1.397000*%
%ADD20C,1.397000*%
%ADD21R,1.500000X1.500000*%
%ADD22R,2.000000X1.500000*%
%ADD23R,2.000000X1.100000*%
%ADD24R,1.100000X2.000000*%
%ADD25C,0.600000*%
%ADD26C,1.000000*%
%ADD27C,2.180000*%
%ADD28C,0.500000*%
%ADD29C,0.250000*%
G04 APERTURE END LIST*
D10*
D11*
X142875000Y-91335860D03*
X142875000Y-87734140D03*
D12*
X139065000Y-90297000D03*
X139065000Y-88773000D03*
D13*
X130810000Y-106970000D03*
X130810000Y-111470000D03*
D14*
X133350000Y-115252500D03*
X133350000Y-117157500D03*
D12*
X139065000Y-95123000D03*
X139065000Y-96647000D03*
D11*
X146050000Y-94084140D03*
X146050000Y-97685860D03*
D13*
X138430000Y-111470000D03*
X138430000Y-106970000D03*
D15*
X157162500Y-106680000D03*
X155257500Y-106680000D03*
X124777500Y-106680000D03*
X126682500Y-106680000D03*
X133667500Y-113030000D03*
X135572500Y-113030000D03*
D14*
X152400000Y-101917500D03*
X152400000Y-103822500D03*
D12*
X152400000Y-98298000D03*
X152400000Y-99822000D03*
D16*
X135079740Y-96281240D03*
X135079740Y-93980000D03*
X135079740Y-91678760D03*
D17*
X129080260Y-93980000D03*
D18*
X120650000Y-106680000D03*
X161290000Y-106680000D03*
D19*
X154940000Y-89535000D03*
D20*
X152400000Y-89535000D03*
D21*
X163750000Y-84250000D03*
X162250000Y-84250000D03*
X160750000Y-84250000D03*
X159250000Y-84250000D03*
X157750000Y-84250000D03*
X156250000Y-84250000D03*
X154750000Y-84250000D03*
X153250000Y-84250000D03*
X151750000Y-84250000D03*
X150250000Y-84250000D03*
X148750000Y-84250000D03*
X147250000Y-84250000D03*
X145750000Y-84250000D03*
X144250000Y-84250000D03*
X142750000Y-84250000D03*
X118250000Y-84250000D03*
X119750000Y-84250000D03*
X121250000Y-84250000D03*
X122750000Y-84250000D03*
X124250000Y-84250000D03*
X125750000Y-84250000D03*
X127250000Y-84250000D03*
X128750000Y-84250000D03*
X130250000Y-84250000D03*
X131750000Y-84250000D03*
X133250000Y-84250000D03*
X134750000Y-84250000D03*
X136250000Y-84250000D03*
X137750000Y-84250000D03*
X139250000Y-84250000D03*
D22*
X141000000Y-84250000D03*
D21*
X165250000Y-129250000D03*
X165250000Y-127750000D03*
X165250000Y-126250000D03*
X165250000Y-124750000D03*
X165250000Y-123250000D03*
X165250000Y-121750000D03*
X165250000Y-120250000D03*
X165250000Y-118750000D03*
X165250000Y-117250000D03*
X165250000Y-115750000D03*
X165250000Y-114250000D03*
X165250000Y-112750000D03*
X165250000Y-111250000D03*
X165250000Y-109750000D03*
X165250000Y-108250000D03*
X165250000Y-106750000D03*
X165250000Y-105250000D03*
X165250000Y-103750000D03*
X165250000Y-102250000D03*
X165250000Y-100750000D03*
X165250000Y-99250000D03*
X165250000Y-97750000D03*
X165250000Y-96250000D03*
X165250000Y-94750000D03*
X165250000Y-93250000D03*
X165250000Y-91750000D03*
X165250000Y-90250000D03*
X165250000Y-88750000D03*
X165250000Y-87250000D03*
X165250000Y-85750000D03*
X165250000Y-84250000D03*
X116750000Y-84250000D03*
X116750000Y-85750000D03*
X116750000Y-87250000D03*
X116750000Y-88750000D03*
X116750000Y-90250000D03*
X116750000Y-91750000D03*
X116750000Y-93250000D03*
X116750000Y-94750000D03*
X116750000Y-96250000D03*
X116750000Y-97750000D03*
X116750000Y-99250000D03*
X116750000Y-100750000D03*
X116750000Y-102250000D03*
X116750000Y-103750000D03*
X116750000Y-105250000D03*
X116750000Y-106750000D03*
X116750000Y-108250000D03*
X116750000Y-109750000D03*
X116750000Y-111250000D03*
X116750000Y-112750000D03*
X116750000Y-114250000D03*
X116750000Y-115750000D03*
X116750000Y-117250000D03*
X116750000Y-118750000D03*
X116750000Y-120250000D03*
X116750000Y-121750000D03*
X116750000Y-123250000D03*
X116750000Y-124750000D03*
X116750000Y-126250000D03*
X116750000Y-127750000D03*
X116750000Y-129250000D03*
D22*
X141000000Y-129250000D03*
D21*
X139250000Y-129250000D03*
X137750000Y-129250000D03*
X136250000Y-129250000D03*
X134750000Y-129250000D03*
X133250000Y-129250000D03*
X131750000Y-129250000D03*
X130250000Y-129250000D03*
X128750000Y-129250000D03*
X127250000Y-129250000D03*
X125750000Y-129250000D03*
X124250000Y-129250000D03*
X122750000Y-129250000D03*
X121250000Y-129250000D03*
X119750000Y-129250000D03*
X118250000Y-129250000D03*
X142750000Y-129250000D03*
X144250000Y-129250000D03*
X145750000Y-129250000D03*
X147250000Y-129250000D03*
X148750000Y-129250000D03*
X150250000Y-129250000D03*
X151750000Y-129250000D03*
X153250000Y-129250000D03*
X154750000Y-129250000D03*
X156250000Y-129250000D03*
X157750000Y-129250000D03*
X159250000Y-129250000D03*
X160750000Y-129250000D03*
X162250000Y-129250000D03*
X163750000Y-129250000D03*
D23*
X143800000Y-106680000D03*
X148300000Y-106680000D03*
D24*
X146050000Y-108930000D03*
X146050000Y-104430000D03*
D25*
X146050000Y-111125000D03*
X147320000Y-104775000D03*
X144780000Y-104775000D03*
X144780000Y-103505000D03*
X144780000Y-102235000D03*
X146050000Y-102235000D03*
X147320000Y-103505000D03*
X144780000Y-108585000D03*
X144780000Y-109855000D03*
X144780000Y-111125000D03*
X147320000Y-108585000D03*
X147320000Y-109855000D03*
X147320000Y-111125000D03*
X147320000Y-102235000D03*
X133350000Y-118745000D03*
X141605000Y-85725000D03*
X144145000Y-85725000D03*
X147320000Y-99695000D03*
X144780000Y-99695000D03*
X142875000Y-85725000D03*
X146050000Y-99695000D03*
X139065000Y-98425000D03*
X139065000Y-87630000D03*
D26*
X146050000Y-108930000D02*
X146050000Y-111125000D01*
X147320000Y-103505000D02*
X147320000Y-104775000D01*
X144780000Y-104775000D02*
X144780000Y-103505000D01*
X146050000Y-102235000D02*
X144780000Y-102235000D01*
X144780000Y-102235000D02*
X144780000Y-103505000D01*
X145161000Y-103886000D02*
X144780000Y-103505000D01*
X146050000Y-103886000D02*
X145161000Y-103886000D01*
X146050000Y-104430000D02*
X146050000Y-102235000D01*
X146050000Y-103886000D02*
X146939000Y-103886000D01*
X146939000Y-103886000D02*
X147320000Y-103505000D01*
X146050000Y-109474000D02*
X145161000Y-109474000D01*
X145161000Y-109474000D02*
X144780000Y-109855000D01*
X144780000Y-109855000D02*
X144780000Y-108585000D01*
X144780000Y-111125000D02*
X144780000Y-109855000D01*
X146050000Y-111125000D02*
X144780000Y-111125000D01*
X146050000Y-109474000D02*
X146939000Y-109474000D01*
X146939000Y-109474000D02*
X147320000Y-109855000D01*
X147320000Y-109855000D02*
X147320000Y-108585000D01*
X147320000Y-111125000D02*
X147320000Y-109855000D01*
X146050000Y-111125000D02*
X147320000Y-111125000D01*
X146050000Y-109474000D02*
X146050000Y-111125000D01*
X147320000Y-102235000D02*
X147320000Y-103505000D01*
X146050000Y-102235000D02*
X147320000Y-102235000D01*
X146050000Y-103886000D02*
X146050000Y-102235000D01*
X133350000Y-117157500D02*
X133350000Y-118745000D01*
X142875000Y-85725000D02*
X141605000Y-85725000D01*
X142875000Y-85725000D02*
X144145000Y-85725000D01*
X146050000Y-99695000D02*
X147320000Y-99695000D01*
X146050000Y-99695000D02*
X144780000Y-99695000D01*
X142875000Y-87734140D02*
X142875000Y-85725000D01*
X146050000Y-97685860D02*
X146050000Y-99695000D01*
X139065000Y-97155000D02*
X137160000Y-97155000D01*
X137160000Y-97155000D02*
X136286240Y-96281240D01*
X136286240Y-96281240D02*
X135079740Y-96281240D01*
X139065000Y-96647000D02*
X139065000Y-97155000D01*
X139065000Y-97155000D02*
X139065000Y-98425000D01*
X139065000Y-88773000D02*
X139065000Y-87630000D01*
D27*
X127635000Y-106680000D02*
X130520000Y-106680000D01*
D26*
X126682500Y-106680000D02*
X127635000Y-106680000D01*
D27*
X130520000Y-106680000D02*
X130810000Y-106970000D01*
D28*
X130520000Y-106680000D02*
X130810000Y-106970000D01*
D29*
X130520000Y-106680000D02*
X130810000Y-106970000D01*
D26*
X133350000Y-115252500D02*
X133350000Y-113347500D01*
X133350000Y-113347500D02*
X133667500Y-113030000D01*
X133667500Y-113030000D02*
X132715000Y-113030000D01*
D27*
X130810000Y-112395000D02*
X131445000Y-113030000D01*
X131445000Y-113030000D02*
X132715000Y-113030000D01*
X130810000Y-112395000D02*
X130810000Y-111470000D01*
D28*
X131100000Y-111760000D02*
X130810000Y-111470000D01*
D29*
X131100000Y-111760000D02*
X130810000Y-111470000D01*
D26*
X146050000Y-94084140D02*
X150599140Y-94084140D01*
X150599140Y-94084140D02*
X152400000Y-95885000D01*
X152400000Y-95885000D02*
X152400000Y-98298000D01*
X139065000Y-93980000D02*
X145945860Y-93980000D01*
X145945860Y-93980000D02*
X146050000Y-94084140D01*
X139065000Y-93980000D02*
X139065000Y-95123000D01*
X135079740Y-93980000D02*
X139065000Y-93980000D01*
X135572500Y-113030000D02*
X136525000Y-113030000D01*
D27*
X138430000Y-112395000D02*
X137795000Y-113030000D01*
X137795000Y-113030000D02*
X136525000Y-113030000D01*
X138430000Y-112395000D02*
X138430000Y-111470000D01*
X142240000Y-106680000D02*
X138720000Y-106680000D01*
X138720000Y-106680000D02*
X138430000Y-106970000D01*
D26*
X143256000Y-106680000D02*
X142240000Y-106680000D01*
D29*
X138720000Y-106680000D02*
X138430000Y-106970000D01*
D27*
X158115000Y-106680000D02*
X161290000Y-106680000D01*
D26*
X157162500Y-106680000D02*
X158115000Y-106680000D01*
X148844000Y-106680000D02*
X149860000Y-106680000D01*
X152400000Y-103822500D02*
X152400000Y-106680000D01*
X152400000Y-106680000D02*
X152400000Y-107315000D01*
X152400000Y-107315000D02*
X152400000Y-106680000D01*
D27*
X149860000Y-106680000D02*
X152400000Y-106680000D01*
X152400000Y-106680000D02*
X154305000Y-106680000D01*
D26*
X155257500Y-106680000D02*
X154940000Y-106680000D01*
D27*
X123825000Y-106680000D02*
X120650000Y-106680000D01*
D26*
X124777500Y-106680000D02*
X123825000Y-106680000D01*
X152400000Y-101917500D02*
X152400000Y-99822000D01*
X140970000Y-91678760D02*
X150256240Y-91678760D01*
X150256240Y-91678760D02*
X152400000Y-89535000D01*
X139065000Y-90297000D02*
X139065000Y-91678760D01*
X139065000Y-91678760D02*
X139065000Y-91440000D01*
X139065000Y-91440000D02*
X139065000Y-91678760D01*
X135079740Y-91678760D02*
X139065000Y-91678760D01*
X139065000Y-91678760D02*
X140970000Y-91678760D01*
X140970000Y-91678760D02*
X142532100Y-91678760D01*
X142532100Y-91678760D02*
X142875000Y-91335860D01*
M02*
