G04 #@! TF.FileFunction,Soldermask,Top*
%FSLAX46Y46*%
G04 Gerber Fmt 4.6, Leading zero omitted, Abs format (unit mm)*
G04 Created by KiCad (PCBNEW (2016-01-30 BZR 6528, Git 351752f)-product) date Thu 07 Jul 2016 01:24:39 AM CEST*
%MOMM*%
G01*
G04 APERTURE LIST*
%ADD10C,0.100000*%
%ADD11R,2.000200X3.000960*%
%ADD12R,1.543000X1.035000*%
%ADD13R,1.400000X1.600000*%
%ADD14R,1.797000X1.289000*%
%ADD15R,1.289000X1.797000*%
%ADD16R,2.200860X1.700480*%
%ADD17R,2.200860X4.199840*%
%ADD18C,2.900000*%
%ADD19R,1.797000X1.797000*%
%ADD20C,1.797000*%
%ADD21R,1.900000X1.900000*%
%ADD22R,2.400000X1.900000*%
%ADD23R,2.400000X1.500000*%
%ADD24R,1.500000X2.400000*%
G04 APERTURE END LIST*
D10*
D11*
X142875000Y-91335860D03*
X142875000Y-87734140D03*
D12*
X139065000Y-90297000D03*
X139065000Y-88773000D03*
D13*
X130810000Y-106970000D03*
X130810000Y-111470000D03*
D14*
X133350000Y-115252500D03*
X133350000Y-117157500D03*
D12*
X139065000Y-95123000D03*
X139065000Y-96647000D03*
D11*
X146050000Y-94084140D03*
X146050000Y-97685860D03*
D13*
X138430000Y-111470000D03*
X138430000Y-106970000D03*
D15*
X157162500Y-106680000D03*
X155257500Y-106680000D03*
X124777500Y-106680000D03*
X126682500Y-106680000D03*
X133667500Y-113030000D03*
X135572500Y-113030000D03*
D14*
X152400000Y-101917500D03*
X152400000Y-103822500D03*
D12*
X152400000Y-98298000D03*
X152400000Y-99822000D03*
D16*
X135079740Y-96281240D03*
X135079740Y-93980000D03*
X135079740Y-91678760D03*
D17*
X129080260Y-93980000D03*
D18*
X120650000Y-106680000D03*
X161290000Y-106680000D03*
D19*
X154940000Y-89535000D03*
D20*
X152400000Y-89535000D03*
D21*
X163750000Y-84250000D03*
X162250000Y-84250000D03*
X160750000Y-84250000D03*
X159250000Y-84250000D03*
X157750000Y-84250000D03*
X156250000Y-84250000D03*
X154750000Y-84250000D03*
X153250000Y-84250000D03*
X151750000Y-84250000D03*
X150250000Y-84250000D03*
X148750000Y-84250000D03*
X147250000Y-84250000D03*
X145750000Y-84250000D03*
X144250000Y-84250000D03*
X142750000Y-84250000D03*
X118250000Y-84250000D03*
X119750000Y-84250000D03*
X121250000Y-84250000D03*
X122750000Y-84250000D03*
X124250000Y-84250000D03*
X125750000Y-84250000D03*
X127250000Y-84250000D03*
X128750000Y-84250000D03*
X130250000Y-84250000D03*
X131750000Y-84250000D03*
X133250000Y-84250000D03*
X134750000Y-84250000D03*
X136250000Y-84250000D03*
X137750000Y-84250000D03*
X139250000Y-84250000D03*
D22*
X141000000Y-84250000D03*
D21*
X165250000Y-129250000D03*
X165250000Y-127750000D03*
X165250000Y-126250000D03*
X165250000Y-124750000D03*
X165250000Y-123250000D03*
X165250000Y-121750000D03*
X165250000Y-120250000D03*
X165250000Y-118750000D03*
X165250000Y-117250000D03*
X165250000Y-115750000D03*
X165250000Y-114250000D03*
X165250000Y-112750000D03*
X165250000Y-111250000D03*
X165250000Y-109750000D03*
X165250000Y-108250000D03*
X165250000Y-106750000D03*
X165250000Y-105250000D03*
X165250000Y-103750000D03*
X165250000Y-102250000D03*
X165250000Y-100750000D03*
X165250000Y-99250000D03*
X165250000Y-97750000D03*
X165250000Y-96250000D03*
X165250000Y-94750000D03*
X165250000Y-93250000D03*
X165250000Y-91750000D03*
X165250000Y-90250000D03*
X165250000Y-88750000D03*
X165250000Y-87250000D03*
X165250000Y-85750000D03*
X165250000Y-84250000D03*
X116750000Y-84250000D03*
X116750000Y-85750000D03*
X116750000Y-87250000D03*
X116750000Y-88750000D03*
X116750000Y-90250000D03*
X116750000Y-91750000D03*
X116750000Y-93250000D03*
X116750000Y-94750000D03*
X116750000Y-96250000D03*
X116750000Y-97750000D03*
X116750000Y-99250000D03*
X116750000Y-100750000D03*
X116750000Y-102250000D03*
X116750000Y-103750000D03*
X116750000Y-105250000D03*
X116750000Y-106750000D03*
X116750000Y-108250000D03*
X116750000Y-109750000D03*
X116750000Y-111250000D03*
X116750000Y-112750000D03*
X116750000Y-114250000D03*
X116750000Y-115750000D03*
X116750000Y-117250000D03*
X116750000Y-118750000D03*
X116750000Y-120250000D03*
X116750000Y-121750000D03*
X116750000Y-123250000D03*
X116750000Y-124750000D03*
X116750000Y-126250000D03*
X116750000Y-127750000D03*
X116750000Y-129250000D03*
D22*
X141000000Y-129250000D03*
D21*
X139250000Y-129250000D03*
X137750000Y-129250000D03*
X136250000Y-129250000D03*
X134750000Y-129250000D03*
X133250000Y-129250000D03*
X131750000Y-129250000D03*
X130250000Y-129250000D03*
X128750000Y-129250000D03*
X127250000Y-129250000D03*
X125750000Y-129250000D03*
X124250000Y-129250000D03*
X122750000Y-129250000D03*
X121250000Y-129250000D03*
X119750000Y-129250000D03*
X118250000Y-129250000D03*
X142750000Y-129250000D03*
X144250000Y-129250000D03*
X145750000Y-129250000D03*
X147250000Y-129250000D03*
X148750000Y-129250000D03*
X150250000Y-129250000D03*
X151750000Y-129250000D03*
X153250000Y-129250000D03*
X154750000Y-129250000D03*
X156250000Y-129250000D03*
X157750000Y-129250000D03*
X159250000Y-129250000D03*
X160750000Y-129250000D03*
X162250000Y-129250000D03*
X163750000Y-129250000D03*
D23*
X143800000Y-106680000D03*
X148300000Y-106680000D03*
D24*
X146050000Y-108930000D03*
X146050000Y-104430000D03*
M02*
